#!OML:ASF H:\LiuWeirdWalks\Patient Classification 1\Patient 1\Session 1\male.ASF
:FULLY-SPECIFIED
:DEGREES
954
root 0.760367 18.1662 6.68252 6.00833 -2.70848 10.6777
lowerback 14.4379 -0.105411 11.713
upperback 0.760913 2.57079 10.5357
thorax -7.36558 1.03926 4.3221
lowerneck -14.9538 1.03766 9.4855
upperneck 11.7915 3.66462 -28.5603
head 6.95834 0.00663524 -11.1569
rclavicle 1.74931e-014 1.08139e-013
rhumerus -17.4271 -35.2772 -9.02589
rradius 30.7619
rwrist -0.498986
rhand -21.1803 -3.95491
rfingers 7.12502
rthumb 5.20028 -33.8711
lclavicle 1.74931e-014 1.08139e-013
lhumerus -27.7499 29.4108 21.5933
lradius 40.3539
lwrist 10.7887
lhand -19.8664 -3.24354
lfingers 7.12502
lthumb 6.46877 26.6377
rfemur -9.7999 7.65906 4.65175
rtibia 30.2166
rfoot -16.7983 -25.9018
rtoes -4.71309
lfemur -21.4887 10.2051 -28.9775
ltibia 36.1547
lfoot -9.24748 19.252
ltoes -14.5705
955
root 0.793288 18.1661 6.7359 6.00296 -2.7791 10.5304
lowerback 14.5806 -0.0851275 11.9284
upperback 0.8088 2.66071 10.6493
thorax -7.39088 1.07674 4.31316
lowerneck -15.0211 1.01143 9.43346
upperneck 11.7691 3.63587 -28.595
head 6.95922 -0.0158876 -11.1641
rclavicle -1.90833e-014 -1.08139e-013
rhumerus -17.4888 -35.557 -9.30922
rradius 30.5007
rwrist -0.287135
rhand -21.1077 -3.91455
rfingers 7.12502
rthumb 5.2704 -33.829
lclavicle -1.90833e-014 -1.08139e-013
lhumerus -27.7974 29.455 21.5271
lradius 40.4321
lwrist 10.8739
lhand -19.8803 -3.17343
lfingers 7.12502
lthumb 6.4554 26.7082
rfemur -9.44673 7.72687 4.71855
rtibia 29.8556
rfoot -16.6968 -25.9271
rtoes -4.85616
lfemur -22.0668 9.86121 -28.7678
ltibia 35.6135
lfoot -9.21756 19.1176
ltoes -14.6517
956
root 0.825533 18.1656 6.78976 5.98607 -2.83338 10.3872
lowerback 14.7306 -0.069901 12.1142
upperback 0.859235 2.74003 10.751
thorax -7.41773 1.10994 4.30941
lowerneck -15.0907 0.989782 9.39857
upperneck 11.7261 3.60403 -28.6212
head 6.95343 -0.0374564 -11.1701
rclavicle -1.74931e-014 -1.01778e-013
rhumerus -17.5563 -35.8125 -9.57093
rradius 30.2549
rwrist -0.149832
rhand -21.0473 -3.83022
rfingers 7.12502
rthumb 5.32871 -33.7432
lclavicle -1.74931e-014 -1.01778e-013
lhumerus -27.8306 29.5078 21.4843
lradius 40.489
lwrist 10.9201
lhand -19.8581 -3.12386
lfingers 7.12502
lthumb 6.47682 26.7571
rfemur -9.07214 7.78951 4.78918
rtibia 29.4948
rfoot -16.589 -25.961
rtoes -5.01659
lfemur -22.6141 9.4907 -28.5361
ltibia 35.0591
lfoot -9.17462 18.9243
ltoes -14.7424
957
root 0.857107 18.1651 6.84401 5.96408 -2.87684 10.2501
lowerback 14.8835 -0.056667 12.2705
upperback 0.904614 2.81297 10.8397
thorax -7.45207 1.14052 4.30866
lowerneck -15.1703 0.967842 9.35774
upperneck 11.7082 3.57564 -28.628
head 6.95714 -0.0584276 -11.1686
rclavicle -6.36111e-015 9.54166e-015
rhumerus -17.6429 -35.9845 -9.8072
rradius 30.0422
rwrist -0.15593
rhand -21.0133 -3.76745
rfingers 7.12502
rthumb 5.36154 -33.6796
lclavicle -6.36111e-015 9.54166e-015
lhumerus -27.831 29.6216 21.4593
lradius 40.5043
lwrist 10.9134
lhand -19.8349 -3.05114
lfingers 7.12502
lthumb 6.4992 26.8291
rfemur -8.68721 7.8533 4.8608
rtibia 29.138
rfoot -16.4766 -26.0068
rtoes -5.18316
lfemur -23.1446 9.1168 -28.2928
ltibia 34.4913
lfoot -9.11062 18.6735
ltoes -14.8735
958
root 0.888159 18.1646 6.899 5.93793 -2.93083 10.1119
lowerback 15.0444 -0.0412127 12.3983
upperback 0.945781 2.88608 10.9179
thorax -7.49597 1.17154 4.31181
lowerneck -15.2231 0.943594 9.3117
upperneck 11.6739 3.54013 -28.6215
head 6.9484 -0.0794089 -11.1592
rclavicle 2.70347e-014 1.49486e-013
rhumerus -17.7395 -36.153 -10.0135
rradius 29.8426
rwrist -0.167783
rhand -20.9632 -3.69822
rfingers 7.12502
rthumb 5.40991 -33.6092
lclavicle 2.70347e-014 1.49486e-013
lhumerus -27.8194 29.7381 21.4485
lradius 40.5041
lwrist 10.8911
lhand -19.7887 -2.993
lfingers 7.12502
lthumb 6.54383 26.8859
rfemur -8.29985 7.93384 4.93676
rtibia 28.7844
rfoot -16.358 -26.0574
rtoes -5.35681
lfemur -23.656 8.75125 -28.0328
ltibia 33.9123
lfoot -9.05246 18.376
ltoes -15.0155
959
root 0.918298 18.1644 6.95534 5.90561 -2.99532 9.97236
lowerback 15.2158 -0.0183332 12.4924
upperback 0.977146 2.96691 10.987
thorax -7.55743 1.20645 4.32169
lowerneck -15.2386 0.917905 9.2877
upperneck 11.6239 3.49723 -28.63
head 6.92678 -0.100369 -11.159
rclavicle 4.77083e-015 -3.18055e-014
rhumerus -17.8561 -36.3231 -10.1679
rradius 29.6424
rwrist -0.168424
rhand -20.8921 -3.6322
rfingers 7.12502
rthumb 5.47848 -33.5414
lclavicle 4.77083e-015 -3.18055e-014
lhumerus -27.805 29.7539 21.4708
lradius 40.5288
lwrist 10.9549
lhand -19.7592 -2.9437
lfingers 7.12502
lthumb 6.57231 26.9343
rfemur -7.9048 8.04001 5.02153
rtibia 28.4327
rfoot -16.2251 -26.1248
rtoes -5.54285
lfemur -24.1465 8.40477 -27.7576
ltibia 33.3242
lfoot -8.99735 18.0475
ltoes -15.1478
960
root 0.948074 18.1644 7.01314 5.87631 -3.06481 9.82062
lowerback 15.3758 0.00608015 12.577
upperback 1.01034 3.04473 11.0435
thorax -7.60987 1.24023 4.32298
lowerneck -15.2575 0.900606 9.27915
upperneck 11.5643 3.46054 -28.6357
head 6.90428 -0.116978 -11.1596
rclavicle -6.36111e-015 8.26944e-014
rhumerus -17.9866 -36.5037 -10.2894
rradius 29.4498
rwrist -0.130919
rhand -20.824 -3.60784
rfingers 7.12502
rthumb 5.54429 -33.5153
lclavicle -6.36111e-015 8.26944e-014
lhumerus -27.7769 29.7298 21.504
lradius 40.5513
lwrist 10.9967
lhand -19.7117 -2.96005
lfingers 7.12502
lthumb 6.61818 26.9165
rfemur -7.50963 8.15505 5.12231
rtibia 28.08
rfoot -16.0818 -26.1981
rtoes -5.73214
lfemur -24.6222 8.06825 -27.4607
ltibia 32.7327
lfoot -8.95224 17.7086
ltoes -15.2561
961
root 0.977558 18.1645 7.07258 5.84962 -3.14273 9.66133
lowerback 15.5094 0.0353368 12.6524
upperback 1.05251 3.11917 11.0857
thorax -7.63661 1.27332 4.31294
lowerneck -15.2726 0.885833 9.27707
upperneck 11.5001 3.42337 -28.6289
head 6.87909 -0.132056 -11.156
rclavicle -9.54166e-015 -1.08139e-013
rhumerus -18.1231 -36.7305 -10.3691
rradius 29.2428
rwrist -0.0281638
rhand -20.7445 -3.58533
rfingers 7.12502
rthumb 5.62108 -33.4908
lclavicle -9.54166e-015 -1.08139e-013
lhumerus -27.7378 29.6339 21.5558
lradius 40.5902
lwrist 11.1057
lhand -19.6749 -3.04613
lfingers 7.12502
lthumb 6.65368 26.8293
rfemur -7.1126 8.28309 5.23365
rtibia 27.7224
rfoot -15.9205 -26.2802
rtoes -5.93028
lfemur -25.0833 7.75296 -27.1517
ltibia 32.142
lfoot -8.8943 17.3737
ltoes -15.3733
962
root 1.0067 18.1648 7.13328 5.83145 -3.22276 9.47927
lowerback 15.6206 0.0660681 12.7318
upperback 1.09766 3.19004 11.1158
thorax -7.64612 1.30488 4.28746
lowerneck -15.2998 0.867086 9.2635
upperneck 11.4543 3.38161 -28.5871
head 6.85937 -0.149435 -11.1375
rclavicle 2.70347e-014 1.145e-013
rhumerus -18.2788 -36.9555 -10.4152
rradius 29.0462
rwrist 0.117034
rhand -20.6789 -3.60131
rfingers 7.12502
rthumb 5.68438 -33.5051
lclavicle 2.70347e-014 1.145e-013
lhumerus -27.6991 29.5013 21.6031
lradius 40.6315
lwrist 11.1404
lhand -19.6152 -3.16665
lfingers 7.12502
lthumb 6.71127 26.707
rfemur -6.71896 8.40599 5.3718
rtibia 27.3602
rfoot -15.7472 -26.3596
rtoes -6.12983
lfemur -25.5411 7.4712 -26.8197
ltibia 31.5574
lfoot -8.81326 17.0432
ltoes -15.5035
